<svg xmlns:dc="http://purl.org/dc/elements/1.1/" xmlns:cc="http://creativecommons.org/ns#" xmlns:rdf="http://www.w3.org/1999/02/22-rdf-syntax-ns#" xmlns:svg="http://www.w3.org/2000/svg" xmlns="http://www.w3.org/2000/svg" xml:space="preserve" id="svg2" version="1.1" viewBox="45.47 49.57 134.92 70.27"><metadata id="metadata8"><rdf:RDF><cc:Work rdf:about=""><dc:format>image/svg+xml</dc:format><dc:type rdf:resource="http://purl.org/dc/dcmitype/StillImage"/></cc:Work></rdf:RDF></metadata><defs id="defs6"/><g transform="matrix(1.3333333,0,0,-1.3333333,0,198.34667)" id="g10"><g transform="scale(0.1)" id="g12"><path id="path14" style="fill:#00adef;fill-opacity:1;fill-rule:nonzero;stroke:none" d="m 1352.81,852.313 c 0,144.746 -117.35,262.567 -261.91,263.387 -0.25,0.01 -0.5,0.04 -0.76,0.04 h -85.47 c -14.752,0 -26.709,-11.95 -26.709,-26.7 0,-14.75 11.957,-26.71 26.709,-26.71 h 84.71 c 115.81,0 210.02,-94.213 210.02,-210.017 0,-115.801 -94.21,-210.016 -210.02,-210.016 H 797.148 v 48.816 h -53.41 V 588.887 h 346.402 v 0.019 c 144.91,0.41 262.67,118.41 262.67,263.407"/><path id="path16" style="fill:#00adef;fill-opacity:1;fill-rule:nonzero;stroke:none" d="m 341.035,852.313 c 0,-144.743 117.356,-262.563 261.91,-263.387 0.254,-0.008 0.504,-0.039 0.766,-0.039 h 85.469 c 14.75,0 26.707,11.957 26.707,26.707 0,14.75 -11.957,26.703 -26.707,26.703 h -84.715 c -115.805,0 -210.02,94.215 -210.02,210.016 0,115.804 94.215,210.017 210.02,210.017 h 292.234 v -48.82 h 53.41 v 102.23 H 603.711 v -0.02 C 458.801,1115.31 341.035,997.313 341.035,852.313"/><path id="path18" style="fill:#1a468e;fill-opacity:1;fill-rule:nonzero;stroke:none" d="M 613.695,828.824 563.816,961.066 H 503.418 L 590.23,743.883 h 41.805 l 89.582,217.183 H 664.43 L 613.695,828.824"/><path id="path20" style="fill:#1a468e;fill-opacity:1;fill-rule:nonzero;stroke:none" d="M 896.734,822.875 812.191,961.066 H 743.813 V 743.883 h 53.277 v 141.765 l 86.918,-141.765 h 66.004 V 961.066 H 896.734 V 822.875"/><path id="path22" style="fill:#1a468e;fill-opacity:1;fill-rule:nonzero;stroke:none" d="m 1102.8,875.551 v -49.719 h 37.71 v -28.551 c -3.95,-1.949 -9,-3.886 -15.08,-5.769 -6.95,-2.16 -15.39,-3.258 -25.09,-3.258 -9.39,0 -17.98,1.605 -25.53,4.777 -7.53,3.16 -14.08,7.629 -19.46,13.293 -5.39,5.668 -9.59,12.465 -12.47,20.199 -2.91,7.782 -4.39,16.516 -4.39,25.954 0,9.238 1.48,17.925 4.39,25.816 2.88,7.812 7.08,14.656 12.47,20.328 5.38,5.656 11.93,10.129 19.46,13.297 7.56,3.172 16.14,4.777 25.53,4.777 11.35,0 20.88,-1.605 28.33,-4.769 7.46,-3.176 14.27,-7.91 20.25,-14.071 l 2.57,-2.648 37.49,40.906 -2.54,2.356 c -11.04,10.219 -24.05,17.527 -38.67,21.722 -14.41,4.129 -30.37,6.219 -47.43,6.219 -16.78,0 -32.46,-2.668 -46.64,-7.933 -14.24,-5.293 -26.73,-12.989 -37.12,-22.86 -10.39,-9.89 -18.615,-22.035 -24.424,-36.086 -5.789,-14.023 -8.726,-29.859 -8.726,-47.054 0,-17.2 2.937,-33.036 8.726,-47.063 5.817,-14.059 14.034,-26.199 24.424,-36.082 10.39,-9.879 22.88,-17.574 37.12,-22.859 14.18,-5.266 29.86,-7.934 46.64,-7.934 15.61,0 31.14,1.621 46.15,4.824 15.07,3.207 29.76,8.512 43.64,15.754 l 1.88,0.977 v 115.457 h -89.21"/></g></g></svg>